<?xml version="1.0" encoding="utf-8"?>
<!-- Generator: Adobe Illustrator 19.1.0, SVG Export Plug-In . SVG Version: 6.00 Build 0)  -->
<svg version="1.1" id="Layer_1" xmlns="http://www.w3.org/2000/svg" xmlns:xlink="http://www.w3.org/1999/xlink" x="0px" y="0px"
	 viewBox="0 0 60.8 53.1" style="enable-background:new 0 0 60.8 53.1;" xml:space="preserve">
<style type="text/css">
	.st0{fill-rule:evenodd;clip-rule:evenodd;fill:none;stroke:#FFFFFF;stroke-width:0.75;stroke-miterlimit:10;}
	.st1{fill-rule:evenodd;clip-rule:evenodd;fill:#FFFFFF;}
</style>
<g>
	<polygon class="st0" points="29.8,1.3 1,1.3 29.8,51.4 58.6,1.3 	"/>
	<polygon class="st0" points="29.8,3.8 5.9,3.8 29.8,46.8 53.7,3.8 	"/>
	<line class="st0" x1="10.9" y1="18.6" x2="48.5" y2="18.6"/>
	<line class="st0" x1="20.5" y1="35.3" x2="39.1" y2="35.3"/>
	<path class="st1" d="M27,11.6c1.1-0.4,1.5-1.4,1.5-2.5c0-1.6-1.1-2.3-2-2.3h-2.4v8.8h0.9v-3.9h1l2,4.1l0.8-0.4L27,11.6z M25.1,10.8
		V7.5h1.1c0.9,0,1.5,0.4,1.5,1.5c0,1.2-0.5,1.8-1.2,1.8H25.1z"/>
	<polygon class="st1" points="36.3,6.7 36.3,7.5 32.9,7.5 32.9,10.4 35.8,10.4 35.8,11.2 32.9,11.2 32.9,14.8 36.3,14.8 36.3,15.5 
		32.1,15.5 32.1,6.7 	"/>
	<path class="st1" d="M42.4,6.7h-1.1l-2.2,8.7l0.9,0.2l0.7-2.9h2.4l0.7,2.9l0.9-0.2L42.4,6.7z M40.9,12l1-4.1h0l1,4.1H40.9z"/>
	<path class="st1" d="M19,6.7h-1.1l-2.2,8.7l0.9,0.2l0.7-2.9h2.4l0.7,2.9l0.9-0.2L19,6.7z M17.5,12l1-4.1h0l1,4.1H17.5z"/>
	<polygon class="st1" points="26.6,21.8 26.6,30 28.5,30 28.5,30.7 23.5,30.7 23.5,30 25.7,30 25.7,23 24.1,23.6 23.9,22.8 	"/>
	<path class="st1" d="M36.3,21.9v0.8h-3.6v2.7c0.4-0.2,0.8-0.3,1.3-0.3c1.3,0,2.4,0.9,2.4,2.3c0,1.1-0.6,2.1-1.6,2.7
		c-0.7,0.4-1.6,0.7-3.3,0.7V30c1.1,0,2-0.1,2.6-0.4c0.8-0.4,1.4-1.2,1.4-2.2c0-0.9-0.6-1.5-1.6-1.5c-0.6,0-1,0.2-1.5,0.5h-0.6v-4.5
		H36.3z"/>
</g>
</svg>
